HIERARCHY
ROOT Hip
{
	OFFSET	0.00  0.00  0.00 
	CHANNELS 6 Xposition Yposition Zposition Xrotation Zrotation Yrotation
	JOINT Abdomen
	{
		OFFSET	0.000000 0.000000 0.000000
		CHANNELS 3 Xrotation Zrotation Yrotation
		JOINT Chest
		{
			OFFSET	0.000000 5.018152 -1.882229
			CHANNELS 3 Xrotation Zrotation Yrotation
			JOINT neckDummy
			{
				OFFSET	0.000000 8.316447 0.784897
				CHANNELS 3 Xrotation Yrotation Zrotation
				JOINT Neck
				{
					OFFSET	0.000000 2.280413 -0.392801
					CHANNELS 3 Xrotation Zrotation Yrotation
					JOINT Head
					{
						OFFSET	0.000000 3.496879 0.529469
						CHANNELS 3 Xrotation Zrotation Yrotation
						End Site
						{
							OFFSET 0.000000 10.353750 0.000000
						}
					}
				}
			}
			JOINT Left Collar
			{
				OFFSET	0.599237 8.316447 0.784897
				CHANNELS 3 Yrotation Zrotation Xrotation
				JOINT Left Shoulder
				{
					OFFSET	6.421198 0.010146 -0.332128
					CHANNELS 3 Zrotation Yrotation Xrotation
					JOINT Left Forearm
					{
						OFFSET	10.552783 0.025574 0.125508
						CHANNELS 3 Yrotation Zrotation Xrotation
						JOINT Left Hand
						{
							OFFSET	11.035963 0.319619 0.041520
							CHANNELS 3 Zrotation Yrotation Xrotation
							End Site
							{
								OFFSET 10.353753 0.000000 0.000000
							}
						}
					}
				}
			}
			JOINT Right Collar
			{
				OFFSET	-0.599237 8.316447 0.784897
				CHANNELS 3 Yrotation Zrotation Xrotation
				JOINT Right Shoulder
				{
					OFFSET	-6.421198 0.010146 -0.332128
					CHANNELS 3 Zrotation Yrotation Xrotation
					JOINT Right Forearm
					{
						OFFSET	-10.552783 0.025574 0.125508
						CHANNELS 3 Yrotation Zrotation Xrotation
						JOINT Right Hand
						{
							OFFSET	-11.035963 0.319619 0.041520
							CHANNELS 3 Zrotation Yrotation Xrotation
							End Site
							{
								OFFSET -10.353753 0.000000 0.000000
							}
						}
					}
				}
			}
		}
	}
	JOINT Left Thigh
	{
		OFFSET	4.500466 -6.400484 -1.832696
		CHANNELS 3 Xrotation Zrotation Yrotation
		JOINT Left Shin
		{
			OFFSET	-1.359117 -18.918689 1.179887
			CHANNELS 3 Xrotation Zrotation Yrotation
			JOINT Left Foot
			{
				OFFSET	-0.652380 -17.215187 -0.312137
				CHANNELS 3 Xrotation Yrotation Zrotation
				End Site
				{
					OFFSET 0.000000 0.000000 10.353752
				}
			}
		}
	}
	JOINT Right Thigh
	{
		OFFSET	-4.500466 -6.400484 -1.832696
		CHANNELS 3 Xrotation Zrotation Yrotation
		JOINT Right Shin
		{
			OFFSET	1.359117 -18.918689 1.179887
			CHANNELS 3 Xrotation Zrotation Yrotation
			JOINT Right Foot
			{
				OFFSET	0.652380 -17.215187 -0.312137
				CHANNELS 3 Xrotation Yrotation Zrotation
				End Site
				{
					OFFSET 0.000000 0.000000 10.353752
				}
			}
		}
	}
}
MOTION
Frames:     17
Frame Time: 0.041667
0.000811 27.046647 0.228210 2.582824 1.019814 -3.156473 -3.170583 -1.629635 33.864414 -2.559539 1.751859 23.965139 0.000000 0.000000 0.000000 0.597475 -0.215692 1.026476 0.536853 -0.086356 -0.473536 0.125471 -0.075507 -0.486781 -42.263855 87.308029 62.527184 -67.345535 -4.583460 6.879072 -41.007919 -11.719890 -3.524167 0.144718 0.047680 0.023515 -1.734754 93.425674 -39.926765 10.447418 -14.949052 -13.068604 -1.162817 -0.402413 -0.523922 -40.745243 61.601463 -21.224611 58.928692 -45.598801 -39.752403 -15.842407 2.244107 -7.422062 0.616800 -51.213337 -3.874722 -1.026770 2.917371 3.405572 10.339990 4.471391 43.009373 
0.000591 27.068096 0.228088 2.097837 0.934484 -3.264646 -2.563938 -1.699315 34.423077 -1.996599 1.663461 24.672085 0.000000 0.000000 0.000000 0.443417 -0.113706 0.724727 0.358231 -0.000050 -0.367001 0.123542 -0.075477 -0.489053 -40.232216 83.638710 62.630772 -67.773430 -4.251761 4.826635 -39.515747 -11.785108 -3.334626 0.148899 0.049069 0.035258 -1.283565 92.560753 -41.290649 9.960116 -12.412641 -11.458462 -0.678357 -0.184997 -0.350925 -40.060310 61.695179 -21.038153 58.956097 -45.100941 -38.940338 -16.256889 1.757080 -8.010623 -0.627756 -51.535664 -3.748287 -0.220238 2.679635 2.401010 5.214916 5.016817 43.883533 
0.000381 27.154634 0.228010 1.510384 0.825126 -3.361364 -1.906518 -1.761738 34.718685 -1.390416 1.553990 25.201492 0.000000 0.000000 0.000000 0.300694 -0.015394 0.445842 0.216066 0.075607 -0.229147 0.121284 -0.075944 -0.488314 -40.795658 79.604660 59.802116 -68.377129 -3.912709 2.779952 -38.268780 -11.595987 -3.365005 0.151794 0.050288 0.046791 -1.201248 91.520126 -42.857162 9.246637 -9.229060 -9.534372 -0.349512 -0.037937 -0.351446 -38.584656 61.395061 -20.115681 58.068253 -44.342407 -37.172604 -16.483553 1.164198 -8.974663 -3.075289 -51.475452 -2.507935 1.307704 1.862181 1.446526 -0.957701 5.048822 45.206623 
0.000183 27.311949 0.227982 0.813494 0.690006 -3.445459 -1.199990 -1.815949 34.727955 -0.742917 1.422551 25.534151 0.000000 0.000000 0.000000 0.172923 0.077459 0.196811 0.117545 0.138071 -0.057282 0.118681 -0.076958 -0.484350 -41.155823 74.967598 57.119984 -68.825134 -3.556739 0.031149 -37.089268 -11.837813 -3.256370 0.153261 0.051325 0.057963 -9.183144 90.310547 -53.083088 8.308661 -5.303522 -7.107476 -0.000188 0.000246 -0.175780 -38.050617 61.215374 -20.289743 57.530575 -43.463036 -35.888168 -16.691153 0.594688 -9.930296 -3.515302 -51.014225 -3.643709 0.507309 0.712838 0.537339 -6.929071 5.189722 46.707577 
0.000000 27.545851 0.228007 0.000000 0.527345 -3.515740 -0.445935 -1.860980 34.427101 -0.055955 1.268210 25.650499 0.000000 0.000000 0.000000 0.063750 0.163057 -0.015324 0.069933 0.184772 0.151343 0.115715 -0.078572 -0.476942 -41.756977 69.922112 53.890556 -69.796364 -3.386459 -2.844060 -35.295567 -11.593279 -3.356171 0.153153 0.052168 0.068626 9.104731 89.085930 -37.366650 7.119508 -0.801285 -4.491655 0.000000 0.000000 0.000000 -37.424171 60.376125 -20.088261 58.438736 -42.792068 -35.121861 -17.754465 0.121498 -9.998846 -4.916623 -51.008553 -4.322815 0.000000 0.000000 0.000000 -13.670327 5.291187 48.419903 
-0.000167 27.859990 0.228087 -0.933992 0.336321 -3.571334 0.353317 -1.896197 33.800484 0.668071 1.090454 25.537004 0.000000 0.000000 0.000000 -0.024052 0.239958 -0.185107 0.078507 0.213796 0.398466 0.112379 -0.080820 -0.465955 -42.443367 64.282333 50.332111 -70.617233 -3.213391 -6.580267 -33.713821 -11.871855 -3.446466 0.151370 0.052805 0.078656 8.228619 87.868370 -40.871029 5.719306 4.439395 -1.277793 0.090283 0.150825 0.000381 -36.330467 59.289722 -19.652582 59.678032 -41.913929 -34.906479 -17.750324 -0.404984 -9.200880 -6.222459 -50.257317 -5.135691 -0.498681 -1.502329 -0.165004 -20.640314 4.629937 50.216908 
-0.000319 28.248974 0.228219 -1.978693 0.120083 -3.612711 1.192179 -1.922360 32.866642 1.424378 0.890576 25.205359 0.000000 0.000000 0.000000 -0.091283 0.308162 -0.313603 0.140333 0.225915 0.681579 0.108709 -0.083666 -0.451610 -43.134468 58.101948 46.456043 -71.453476 -3.045699 -10.857236 -32.157162 -11.444943 -3.401646 0.148000 0.053245 0.088044 10.112882 86.463882 -42.226933 4.036305 10.289620 1.729657 0.417107 0.322670 0.353414 -35.970814 57.703705 -19.798767 62.283978 -41.186676 -35.129856 -18.600693 -1.139685 -7.738570 -8.355015 -50.077351 -5.729409 -0.886770 -2.107477 -0.859738 -27.083092 4.524234 51.709888 
-0.000454 28.705244 0.228400 -3.121031 -0.117255 -3.640658 2.064299 -1.940568 31.652266 2.207625 0.670287 24.673277 0.000000 0.000000 0.000000 -0.139609 0.368023 -0.403458 0.250493 0.222556 0.997159 0.104749 -0.087057 -0.434211 -44.175022 51.533978 42.336929 -72.470657 -2.884080 -15.313023 -30.376095 -11.134570 -2.968835 0.143178 0.053498 0.096806 12.524877 84.863792 -43.198090 2.309833 16.315126 5.226053 0.676570 0.191478 0.880183 -35.471954 55.959499 -19.812860 64.776169 -40.491619 -35.451912 -19.634377 -1.476434 -5.876891 -26.648483 -30.040051 4.618645 28.829887 -42.555923 -12.586056 -26.378069 -2.196018 71.701080 
-0.000575 29.221363 0.228624 -4.348107 -0.371621 -3.655938 2.963384 -1.951905 30.183542 3.012520 0.431268 23.958128 0.000000 0.000000 0.000000 -0.170664 0.419875 -0.457246 0.404153 0.205114 1.341739 0.100546 -0.090941 -0.414060 -45.006538 44.689697 37.951702 -73.489662 -2.905247 -20.082853 -28.397125 -10.843156 -3.063797 0.137036 0.053575 0.104960 15.833031 83.405777 -43.603691 0.281631 23.139530 9.558898 0.838838 0.262373 0.529503 -34.273109 53.866951 -19.227856 66.016060 -39.090599 -34.844814 -20.338280 -1.492999 -4.483041 -28.662338 -23.916832 3.636881 31.234594 -53.809376 -18.089628 -23.992949 -3.058209 77.904289 
-0.000680 29.789996 0.228887 -5.647172 -0.638968 -3.659291 3.883189 -1.957440 28.486221 3.833807 0.175161 23.076946 0.000000 0.000000 0.000000 -0.186048 0.464043 -0.477478 0.596559 0.174962 1.711904 0.096142 -0.095268 -0.391451 -45.846138 37.635593 33.759705 -74.878975 -2.678855 -25.577467 -26.912973 -10.742593 -2.873525 0.129703 0.053486 0.112521 17.843233 81.875427 -45.863377 -2.013823 30.807650 13.691644 0.774659 0.415208 0.706888 -32.502399 51.669628 -18.657747 67.129921 -37.888123 -33.732994 -21.027365 -1.711812 -3.478312 -33.046711 -19.043932 3.570832 39.462227 -61.382233 -26.259188 -23.626575 -3.486918 82.386566 
-0.000772 30.403903 0.229185 -7.005605 -0.915277 -3.651437 4.817506 -1.958236 26.585638 4.666263 -0.096417 22.046480 0.000000 0.000000 0.000000 -0.187337 0.500835 -0.466609 0.823022 0.133451 2.104285 0.091584 -0.099986 -0.366674 -46.916031 30.373411 28.870619 -76.084297 -2.863676 -31.202564 -24.950069 -10.379994 -2.822806 0.121305 0.053240 0.119502 20.897778 80.095398 -46.956387 -4.257647 38.563431 18.023829 0.954015 0.449719 0.883574 -30.738953 49.265839 -17.751568 67.853683 -36.279602 -32.787457 -21.562468 -1.631611 -2.240017 -35.181351 -13.685287 2.448497 42.417080 -69.953575 -33.477169 -19.992598 -2.194376 86.265190 
-0.000848 31.055924 0.229514 -8.410888 -1.196541 -3.633075 5.760151 -1.955346 24.506775 5.504680 -0.381879 20.883213 0.000000 0.000000 0.000000 -0.176081 0.530546 -0.427034 1.078915 0.081909 2.515552 0.086914 -0.105046 -0.340017 -48.083221 22.927134 24.362125 -77.472206 -2.874529 -37.062096 -22.953844 -10.084813 -2.532947 0.111969 0.052848 0.125917 24.038717 78.544449 -48.175751 -6.665480 46.459572 22.699980 0.858658 0.187576 0.704652 -28.899590 46.516609 -16.921505 68.128914 -34.568230 -30.871912 -22.097403 -1.542223 -1.703638 -42.006313 -9.471755 3.511397 60.201965 -71.601440 -48.442841 -20.783566 -2.045117 87.314911 
-0.000911 31.738966 0.229871 -9.850586 -1.478763 -3.604887 6.704957 -1.949815 22.274300 6.343863 -0.679663 19.603395 0.000000 0.000000 0.000000 -0.153806 0.553462 -0.361102 1.359663 0.021649 2.942408 0.082176 -0.110400 -0.311764 -49.143673 15.233850 19.463106 -78.675545 -3.070260 -42.900314 -20.980965 -9.712032 -2.250556 0.101818 0.052318 0.131778 26.655861 76.966660 -50.096661 -9.366562 54.524326 27.455074 0.724489 0.497641 0.883455 -26.202059 43.823383 -15.725660 67.570892 -32.633228 -28.849705 -22.644966 -1.214247 -1.118790 -45.447063 -4.075358 2.875231 73.099174 -75.790993 -63.608192 -18.144083 -0.186261 88.557663 
-0.000961 32.445991 0.230250 -11.312326 -1.757949 -3.567536 7.645758 -1.942686 19.912603 7.178618 -0.988228 18.223066 0.000000 0.000000 0.000000 -0.122023 0.569852 -0.271112 1.660734 -0.046032 3.381582 0.077415 -0.115998 -0.282194 -50.346951 7.689121 14.416614 -80.058189 -3.107452 -48.797585 -19.159447 -9.415540 -2.301934 0.090974 0.051660 0.137096 29.823580 75.202614 -51.237076 -11.630445 62.862846 32.008820 1.150297 0.436919 0.708243 -24.166647 41.065796 -14.822465 67.016365 -30.692825 -26.852247 -22.670404 -0.507456 -0.627506 -52.420586 0.161389 3.204666 85.368805 -74.041512 -73.198837 -18.856394 1.089731 86.650536 
-0.000996 33.170003 0.230648 -12.783774 -2.030098 -3.521671 8.576383 -1.934997 17.445858 8.003745 -1.306051 16.758093 0.000000 0.000000 0.000000 -0.082221 0.579977 -0.159322 1.977633 -0.119850 3.829828 0.072672 -0.121793 -0.251586 -51.393333 0.157131 9.543943 -81.366470 -3.371753 -54.825970 -17.242233 -8.887729 -1.991317 0.079558 0.050883 0.141881 33.077942 73.641602 -52.455715 -13.892346 71.123375 36.239193 1.153680 0.427923 0.883912 -21.747091 38.100414 -13.572485 65.850502 -28.738861 -24.589989 -22.323692 0.157019 -0.145232 -58.956841 4.441331 2.896783 91.632019 -72.245316 -77.573303 -19.282143 2.421452 83.532982 
-0.001019 33.904035 0.231062 -14.252612 -2.291197 -3.467924 9.490643 -1.927786 14.898040 8.814022 -1.631628 15.224193 0.000000 0.000000 0.000000 -0.035877 0.584087 -0.027953 2.305892 -0.198533 4.283913 0.067993 -0.127737 -0.220218 -52.729527 -7.206747 4.951919 -83.085899 -3.605666 -60.741432 -15.440932 -8.505171 -1.853702 0.067691 0.049995 0.146142 36.123989 72.217957 -53.964756 -15.965586 79.338486 40.458118 1.126921 0.494136 0.708915 -19.234501 35.415421 -12.370712 65.136490 -26.652153 -22.516056 -22.497635 0.335068 0.065627 -64.991661 8.501410 1.496100 92.575813 -70.913742 -76.594933 -19.248968 3.508250 79.154938 
-0.001029 34.641139 0.231486 -15.706517 -2.537213 -3.406914 10.382318 -1.922091 12.292991 9.604207 -1.963465 13.636957 0.000000 0.000000 0.000000 0.015541 0.582418 0.120813 2.641063 -0.280817 4.740616 0.063421 -0.133783 -0.188364 -53.949768 -14.585411 0.581096 -84.373199 -3.167425 -66.724579 -13.699472 -7.989672 -1.697127 0.055491 0.049005 0.149889 39.408844 70.590103 -55.168392 -11.300658 87.587624 37.847324 0.933651 0.490611 0.532442 -16.598267 32.411690 -11.226857 63.434666 -24.547243 -20.278975 -21.941601 1.197815 0.229179 -71.094849 11.504157 -0.271817 88.425819 -68.784210 -70.238335 -19.615761 4.674107 73.548149 
